<svg width="64" height="64" viewBox="0 0 64 64" fill="none" xmlns="http://www.w3.org/2000/svg">
<path fill-rule="evenodd" clip-rule="evenodd" d="M4.3765 23.3438C4.378 48.1122 4.35725 47.1947 4.94425 48.4062C5.06913 48.6641 5.22038 48.875 5.28038 48.875C5.393 48.875 7.27588 48.0166 10 46.7234C10.8594 46.3154 12.0688 45.7641 12.6875 45.4984C13.3062 45.2326 14.15 44.851 14.5625 44.6504C14.975 44.4498 15.9594 44.0026 16.75 43.6566C17.5406 43.3106 19.2844 42.5476 20.625 41.9613C23.1223 40.8688 26.9619 39.3286 26.8143 39.4787C26.5971 39.6994 22.4662 42.199 20.0625 43.5643C17.5317 45.0016 12.9653 47.4911 8.44938 49.8952C7.63088 50.331 6.9595 50.7437 6.95738 50.8125C6.95525 50.8813 7.37175 51.1476 7.883 51.4044C9.39362 52.1631 9.49462 52.1671 24.4282 52.0653C35.2965 51.991 37.7923 51.9427 38.3564 51.7957C39.9899 51.3704 41.4693 50.1652 42.2184 48.6497L42.6875 47.7009L42.7236 40.663L42.7598 33.625L41.9111 33.6222C41.3519 33.6205 40.892 33.5404 40.5625 33.3872C40.106 33.1752 39.5 32.701 39.5 32.5558C39.5 32.523 40.2452 30.7955 41.1562 28.7169L42.8125 24.9375L42.854 21.125C42.8769 19.0281 42.856 13.4173 42.8076 8.65625L42.7199 0H41.4819C40.3221 0 40.1902 0.027 39.398 0.426C36.6031 1.83337 20.9858 8.1525 20.7889 7.9555C20.7063 7.87288 27.8758 3.93062 32.75 1.3785C34.0906 0.676625 35.2109 0.07925 35.2396 0.051125C35.2682 0.023 28.3354 0 19.8334 0H4.375L4.3765 23.3438ZM46 23.5491C46 49.3779 46.0355 48.11 45.2675 49.7331C43.6984 53.0497 41.1777 54.7635 37.2751 55.1666L35.8628 55.3125L37.1488 56.375C37.856 56.9594 38.984 57.9286 39.6553 58.5288C40.7795 59.5338 40.8521 59.626 40.5742 59.6958C40.4084 59.7374 39.0441 59.7504 37.5426 59.7246C35.2354 59.6851 34.7254 59.6417 34.25 59.4449C33.2555 59.033 32.7729 58.3933 32.2453 56.7874C32.0916 56.32 31.8894 55.7859 31.7957 55.6005L31.6255 55.2635L20.4065 55.2165C10.1031 55.1734 9.11612 55.1511 8.3125 54.9445C7.241 54.6689 6.10688 54.1673 5.21138 53.5729C4.84025 53.3265 4.50025 53.125 4.45575 53.125C4.32225 53.125 4.36625 56.8982 4.506 57.4375C5.12988 59.8431 6.9175 61.5439 9.125 61.8316C9.57188 61.8899 18.1781 61.9094 28.25 61.875L46.5625 61.8125L47.3875 61.4089C48.4956 60.8666 49.5107 59.8285 50.1016 58.6331L50.5625 57.7009L50.6385 46.9442C50.7465 31.6734 50.6531 2.32712 50.4946 1.69537C50.4245 1.416 50.2469 0.92025 50.0998 0.59375L49.8322 0H47.9161H46V23.5491ZM53.8332 11.2729C53.7875 16.1759 53.7501 28.5991 53.7501 38.88C53.75 59.8208 53.8236 58.1654 52.8008 60.2139C52.1519 61.5135 51.1546 62.6909 50.0703 63.4378C49.6879 63.7011 49.375 63.9354 49.375 63.9582C49.375 63.9812 51.3636 64 53.7943 64H58.2136L58.4821 63.0938L58.7508 62.1875L58.7479 35C58.7461 18.9447 58.6975 7.48363 58.6289 7.00938C58.4629 5.86088 57.8881 4.7765 57.0283 3.9895C56.3616 3.37925 54.9859 2.6125 54.2394 2.435L53.9162 2.35825L53.8332 11.2729Z" fill="black"/>
</svg>
